<svg xmlns="http://www.w3.org/2000/svg" version="1.1" xmlns:xlink="http://www.w3.org/1999/xlink" xmlns:svgjs="http://svgjs.dev/svgjs" width="2000" height="1247" viewBox="0 0 2000 1247"><g transform="matrix(1,0,0,1,-1.2121212121212466,0.504858299595071)"><svg viewBox="0 0 396 247" data-background-color="#ffffff" preserveAspectRatio="xMidYMid meet" height="1247" width="2000" xmlns="http://www.w3.org/2000/svg" xmlns:xlink="http://www.w3.org/1999/xlink"><g id="tight-bounds" transform="matrix(1,0,0,1,0.2400000000000091,-0.09999999999999432)"><svg viewBox="0 0 395.52 247.2" height="247.2" width="395.52"><g><svg></svg></g><g><svg viewBox="0 0 395.52 247.2" height="247.2" width="395.52"><g transform="matrix(1,0,0,1,124.45663366336632,37.08)"><svg viewBox="0 0 146.60673267326735 173.04" height="173.04" width="146.60673267326735"><g><svg viewBox="0 0 146.60673267326735 173.04" height="173.04" width="146.60673267326735"><g><svg viewBox="0 0 146.60673267326735 173.04" height="173.04" width="146.60673267326735"><g><svg viewBox="0 0 146.60673267326735 173.04" height="173.04" width="146.60673267326735"><g id="textblocktransform"><svg viewBox="0 0 146.60673267326735 173.04" height="173.04" width="146.60673267326735" id="textblock"><g><svg viewBox="0 0 146.60673267326735 173.04" height="173.04" width="146.60673267326735"><g transform="matrix(1,0,0,1,0,0)"><svg width="146.60673267326735" viewBox="1.7000000476837158 -29.450000762939453 29.94999885559082 35.35000228881836" height="173.04" data-palette-color="#030303"><path d="M10.85-24.7L10.85-24.7Q12.8-27.15 17.75-28.05L17.75-28.05Q19.9-28.4 22.15-28.4 24.4-28.4 26.8-28L26.8-28Q28.1-29.45 29.45-29.45L29.45-29.45Q29.8-29.45 29.93-29.28 30.05-29.1 29.9-28.9 29.75-28.7 29.23-28.53 28.7-28.35 28-27.75L28-27.75Q29.7-27.25 30.35-26.93 31-26.6 31.33-26.1 31.65-25.6 31.65-25.4L31.65-25.4Q31.65-24.95 30.28-25.4 28.9-25.85 27.05-26.1L27.05-26.1Q26.15-23.95 25.15-20.2 24.15-16.45 23.95-15.7L23.95-15.7Q26.65-16.35 27.58-16.35 28.5-16.35 28.7-16.23 28.9-16.1 28.93-15.9 28.95-15.7 28.85-15.58 28.75-15.45 28.53-15.55 28.3-15.65 27.7-15.65 27.1-15.65 25.45-15.23 23.8-14.8 23.5-13.95L23.5-13.95Q18.9-1.3 11.8 3.65L11.8 3.65Q8.65 5.9 6.05 5.9L6.05 5.9Q5.1 5.9 4.25 5.6L4.25 5.6Q1.7 4.75 1.7 1.83 1.7-1.1 4.75-4.6L4.75-4.6Q10.9-11.65 21.35-14.95L21.35-14.95Q21.5-15.4 22.3-17.9L22.3-17.9Q24.05-23.6 25.55-26.2L25.55-26.2Q24.95-26.2 23.75-26.2 22.55-26.2 20.35-25.95L20.35-25.95Q14.7-25.3 12.3-23.1L12.3-23.1Q11.05-21.9 11.05-20.35L11.05-20.35Q11.05-19.6 11.48-19 11.9-18.4 12.3-18.15L12.3-18.15Q12.95-17.7 14.05-17.15L14.05-17.15Q14.65-16.7 14.3-16.6L14.3-16.6Q14.15-16.6 13.95-16.65L13.95-16.65Q12.75-16.9 11.4-18.1 10.05-19.3 10-20.85L10-20.85Q9.85-21.4 9.85-21.75L9.85-21.75Q9.85-23.4 10.85-24.7ZM4.3 1.45L4.3 1.45Q4.3 2 4.4 2.55L4.4 2.55Q4.9 4.45 6.9 4.45L6.9 4.45Q9.85 4.45 13.1 0.5L13.1 0.5Q17.9-5.35 21.05-14L21.05-14Q12.3-11.15 7.2-4.75L7.2-4.75Q4.3-1.2 4.3 1.45Z" opacity="1" transform="matrix(1,0,0,1,0,0)" fill="#ffffff" class="undefined-text-0" data-fill-palette-color="primary" id="text-0"></path></svg></g></svg></g></svg></g></svg></g><g></g></svg></g></svg></g></svg></g><g></g></svg></g><defs></defs></svg><rect width="395.52" height="247.2" fill="none" stroke="none" visibility="hidden"></rect></g></svg></g></svg>